<mxfile host="app.diagrams.net" agent="Mozilla/5.0 (Windows NT 10.0; Win64; x64) AppleWebKit/537.36 (KHTML, like Gecko) Chrome/129.0.0.0 Safari/537.36" version="24.8.4">
  <diagram name="Page-1" id="b5b7bab2-c9e2-2cf4-8b2a-24fd1a2a6d21">
    <mxGraphModel dx="1034" dy="454" grid="1" gridSize="10" guides="1" tooltips="1" connect="1" arrows="1" fold="1" page="1" pageScale="1" pageWidth="827" pageHeight="1169" background="none" math="0" shadow="0">
      <root>
        <mxCell id="0" />
        <mxCell id="1" parent="0" />
        <mxCell id="EVtTpWGIUV5swt_c3had-1" value="Attacker Machine (Running Client Programme)" style="rounded=0;whiteSpace=wrap;html=1;" vertex="1" parent="1">
          <mxGeometry x="550" y="160" width="180" height="60" as="geometry" />
        </mxCell>
        <mxCell id="EVtTpWGIUV5swt_c3had-2" value="" style="endArrow=classic;html=1;rounded=0;exitX=0;exitY=1;exitDx=0;exitDy=0;entryX=0.5;entryY=0;entryDx=0;entryDy=0;" edge="1" parent="1" source="EVtTpWGIUV5swt_c3had-1" target="EVtTpWGIUV5swt_c3had-10">
          <mxGeometry width="50" height="50" relative="1" as="geometry">
            <mxPoint x="570" y="370" as="sourcePoint" />
            <mxPoint x="430" y="300" as="targetPoint" />
            <Array as="points">
              <mxPoint x="470" y="270" />
            </Array>
          </mxGeometry>
        </mxCell>
        <mxCell id="EVtTpWGIUV5swt_c3had-4" value="" style="endArrow=classic;html=1;rounded=0;" edge="1" parent="1">
          <mxGeometry width="50" height="50" relative="1" as="geometry">
            <mxPoint x="617.5" y="220" as="sourcePoint" />
            <mxPoint x="660" y="320" as="targetPoint" />
          </mxGeometry>
        </mxCell>
        <mxCell id="EVtTpWGIUV5swt_c3had-5" value="" style="endArrow=classic;html=1;rounded=0;exitX=0.793;exitY=1.056;exitDx=0;exitDy=0;exitPerimeter=0;" edge="1" parent="1" source="EVtTpWGIUV5swt_c3had-1">
          <mxGeometry width="50" height="50" relative="1" as="geometry">
            <mxPoint x="570" y="370" as="sourcePoint" />
            <mxPoint x="720" y="320" as="targetPoint" />
          </mxGeometry>
        </mxCell>
        <mxCell id="EVtTpWGIUV5swt_c3had-7" value="" style="endArrow=classic;html=1;rounded=0;exitX=1;exitY=1;exitDx=0;exitDy=0;entryX=0.373;entryY=-0.033;entryDx=0;entryDy=0;entryPerimeter=0;" edge="1" parent="1" source="EVtTpWGIUV5swt_c3had-1" target="EVtTpWGIUV5swt_c3had-15">
          <mxGeometry width="50" height="50" relative="1" as="geometry">
            <mxPoint x="570" y="370" as="sourcePoint" />
            <mxPoint x="810" y="290" as="targetPoint" />
          </mxGeometry>
        </mxCell>
        <mxCell id="EVtTpWGIUV5swt_c3had-8" value="" style="endArrow=classic;html=1;rounded=0;exitX=0.096;exitY=1.011;exitDx=0;exitDy=0;exitPerimeter=0;" edge="1" parent="1" source="EVtTpWGIUV5swt_c3had-1">
          <mxGeometry width="50" height="50" relative="1" as="geometry">
            <mxPoint x="570" y="370" as="sourcePoint" />
            <mxPoint x="540" y="320" as="targetPoint" />
          </mxGeometry>
        </mxCell>
        <mxCell id="EVtTpWGIUV5swt_c3had-10" value="Handler/Node-1" style="whiteSpace=wrap;html=1;aspect=fixed;" vertex="1" parent="1">
          <mxGeometry x="340" y="320" width="100" height="100" as="geometry" />
        </mxCell>
        <mxCell id="EVtTpWGIUV5swt_c3had-11" value="Handler/Node-2" style="whiteSpace=wrap;html=1;aspect=fixed;" vertex="1" parent="1">
          <mxGeometry x="473.5" y="320" width="100" height="100" as="geometry" />
        </mxCell>
        <mxCell id="EVtTpWGIUV5swt_c3had-12" value="Handler/Node-3" style="whiteSpace=wrap;html=1;aspect=fixed;" vertex="1" parent="1">
          <mxGeometry x="600" y="320" width="100" height="100" as="geometry" />
        </mxCell>
        <mxCell id="EVtTpWGIUV5swt_c3had-13" value="Handler/Node-4" style="whiteSpace=wrap;html=1;aspect=fixed;" vertex="1" parent="1">
          <mxGeometry x="720" y="320" width="100" height="100" as="geometry" />
        </mxCell>
        <mxCell id="EVtTpWGIUV5swt_c3had-15" value="Handler/Node-5" style="whiteSpace=wrap;html=1;aspect=fixed;" vertex="1" parent="1">
          <mxGeometry x="831.5" y="320" width="100" height="100" as="geometry" />
        </mxCell>
        <mxCell id="EVtTpWGIUV5swt_c3had-21" value="" style="endArrow=none;dashed=1;html=1;rounded=0;" edge="1" parent="1">
          <mxGeometry width="50" height="50" relative="1" as="geometry">
            <mxPoint x="400" y="490" as="sourcePoint" />
            <mxPoint x="320" y="497" as="targetPoint" />
            <Array as="points">
              <mxPoint x="370" y="420" />
            </Array>
          </mxGeometry>
        </mxCell>
        <mxCell id="EVtTpWGIUV5swt_c3had-22" value="" style="endArrow=none;dashed=1;html=1;dashPattern=1 3;strokeWidth=2;rounded=0;" edge="1" parent="1">
          <mxGeometry width="50" height="50" relative="1" as="geometry">
            <mxPoint x="470" y="490" as="sourcePoint" />
            <mxPoint x="540" y="500" as="targetPoint" />
            <Array as="points">
              <mxPoint x="510" y="420" />
            </Array>
          </mxGeometry>
        </mxCell>
        <mxCell id="EVtTpWGIUV5swt_c3had-23" value="" style="endArrow=none;dashed=1;html=1;dashPattern=1 3;strokeWidth=2;rounded=0;exitX=0.5;exitY=0;exitDx=0;exitDy=0;entryX=0.5;entryY=0;entryDx=0;entryDy=0;" edge="1" parent="1" source="EVtTpWGIUV5swt_c3had-38" target="EVtTpWGIUV5swt_c3had-51">
          <mxGeometry width="50" height="50" relative="1" as="geometry">
            <mxPoint x="610" y="480" as="sourcePoint" />
            <mxPoint x="660" y="490" as="targetPoint" />
            <Array as="points">
              <mxPoint x="650" y="420" />
            </Array>
          </mxGeometry>
        </mxCell>
        <mxCell id="EVtTpWGIUV5swt_c3had-24" value="" style="endArrow=none;dashed=1;html=1;dashPattern=1 3;strokeWidth=2;rounded=0;entryX=0.5;entryY=0;entryDx=0;entryDy=0;exitX=0.5;exitY=0;exitDx=0;exitDy=0;" edge="1" parent="1" source="EVtTpWGIUV5swt_c3had-44" target="EVtTpWGIUV5swt_c3had-45">
          <mxGeometry width="50" height="50" relative="1" as="geometry">
            <mxPoint x="706.5" y="480" as="sourcePoint" />
            <mxPoint x="806.5" y="480" as="targetPoint" />
            <Array as="points">
              <mxPoint x="766.5" y="420" />
            </Array>
          </mxGeometry>
        </mxCell>
        <mxCell id="EVtTpWGIUV5swt_c3had-26" value="" style="endArrow=none;dashed=1;html=1;dashPattern=1 3;strokeWidth=2;rounded=0;entryX=0;entryY=0;entryDx=0;entryDy=0;exitX=0.5;exitY=0;exitDx=0;exitDy=0;" edge="1" parent="1" source="EVtTpWGIUV5swt_c3had-46" target="EVtTpWGIUV5swt_c3had-39">
          <mxGeometry width="50" height="50" relative="1" as="geometry">
            <mxPoint x="870" y="480" as="sourcePoint" />
            <mxPoint x="940" y="480" as="targetPoint" />
            <Array as="points">
              <mxPoint x="900" y="420" />
            </Array>
          </mxGeometry>
        </mxCell>
        <mxCell id="EVtTpWGIUV5swt_c3had-29" value="User 1" style="whiteSpace=wrap;html=1;aspect=fixed;" vertex="1" parent="1">
          <mxGeometry x="280" y="500" width="60" height="60" as="geometry" />
        </mxCell>
        <mxCell id="EVtTpWGIUV5swt_c3had-32" value="User2" style="whiteSpace=wrap;html=1;aspect=fixed;" vertex="1" parent="1">
          <mxGeometry x="370" y="500" width="60" height="60" as="geometry" />
        </mxCell>
        <mxCell id="EVtTpWGIUV5swt_c3had-34" value="User3" style="whiteSpace=wrap;html=1;aspect=fixed;" vertex="1" parent="1">
          <mxGeometry x="440" y="500" width="60" height="60" as="geometry" />
        </mxCell>
        <mxCell id="EVtTpWGIUV5swt_c3had-37" value="User4" style="whiteSpace=wrap;html=1;aspect=fixed;" vertex="1" parent="1">
          <mxGeometry x="513.5" y="500" width="60" height="60" as="geometry" />
        </mxCell>
        <mxCell id="EVtTpWGIUV5swt_c3had-38" value="User5" style="whiteSpace=wrap;html=1;aspect=fixed;" vertex="1" parent="1">
          <mxGeometry x="580" y="500" width="60" height="60" as="geometry" />
        </mxCell>
        <mxCell id="EVtTpWGIUV5swt_c3had-39" value="User10" style="whiteSpace=wrap;html=1;aspect=fixed;" vertex="1" parent="1">
          <mxGeometry x="950" y="500" width="60" height="60" as="geometry" />
        </mxCell>
        <mxCell id="EVtTpWGIUV5swt_c3had-44" value="User7" style="whiteSpace=wrap;html=1;aspect=fixed;" vertex="1" parent="1">
          <mxGeometry x="720" y="500" width="60" height="60" as="geometry" />
        </mxCell>
        <mxCell id="EVtTpWGIUV5swt_c3had-45" value="User8" style="whiteSpace=wrap;html=1;aspect=fixed;" vertex="1" parent="1">
          <mxGeometry x="790" y="500" width="60" height="60" as="geometry" />
        </mxCell>
        <mxCell id="EVtTpWGIUV5swt_c3had-46" value="User 9" style="whiteSpace=wrap;html=1;aspect=fixed;" vertex="1" parent="1">
          <mxGeometry x="860" y="500" width="60" height="60" as="geometry" />
        </mxCell>
        <mxCell id="EVtTpWGIUV5swt_c3had-51" value="User6" style="whiteSpace=wrap;html=1;aspect=fixed;" vertex="1" parent="1">
          <mxGeometry x="650" y="500" width="60" height="60" as="geometry" />
        </mxCell>
        <mxCell id="EVtTpWGIUV5swt_c3had-52" value="" style="rounded=1;whiteSpace=wrap;html=1;fillColor=none;" vertex="1" parent="1">
          <mxGeometry x="256.5" y="460" width="770" height="150" as="geometry" />
        </mxCell>
        <mxCell id="EVtTpWGIUV5swt_c3had-54" value="COMMAND AND CONTROL" style="text;html=1;align=center;verticalAlign=middle;whiteSpace=wrap;rounded=0;" vertex="1" parent="1">
          <mxGeometry x="931.5" y="330" width="160" height="30" as="geometry" />
        </mxCell>
        <mxCell id="EVtTpWGIUV5swt_c3had-55" value="INTERNET" style="ellipse;shape=cloud;whiteSpace=wrap;html=1;" vertex="1" parent="1">
          <mxGeometry x="460" y="680" width="220" height="110" as="geometry" />
        </mxCell>
        <mxCell id="EVtTpWGIUV5swt_c3had-59" value="" style="endArrow=classic;html=1;rounded=0;entryX=0.07;entryY=0.4;entryDx=0;entryDy=0;entryPerimeter=0;" edge="1" parent="1" target="EVtTpWGIUV5swt_c3had-55">
          <mxGeometry width="50" height="50" relative="1" as="geometry">
            <mxPoint x="320" y="560" as="sourcePoint" />
            <mxPoint x="310" y="560" as="targetPoint" />
            <Array as="points">
              <mxPoint x="320" y="560" />
            </Array>
          </mxGeometry>
        </mxCell>
        <mxCell id="EVtTpWGIUV5swt_c3had-60" value="" style="endArrow=classic;html=1;rounded=0;entryX=0.11;entryY=0.3;entryDx=0;entryDy=0;entryPerimeter=0;" edge="1" parent="1" target="EVtTpWGIUV5swt_c3had-55">
          <mxGeometry width="50" height="50" relative="1" as="geometry">
            <mxPoint x="400" y="560" as="sourcePoint" />
            <mxPoint x="450" y="510" as="targetPoint" />
          </mxGeometry>
        </mxCell>
        <mxCell id="EVtTpWGIUV5swt_c3had-63" value="" style="endArrow=classic;html=1;rounded=0;entryX=0.25;entryY=0.25;entryDx=0;entryDy=0;entryPerimeter=0;" edge="1" parent="1" target="EVtTpWGIUV5swt_c3had-55">
          <mxGeometry width="50" height="50" relative="1" as="geometry">
            <mxPoint x="450" y="560" as="sourcePoint" />
            <mxPoint x="500" y="510" as="targetPoint" />
          </mxGeometry>
        </mxCell>
        <mxCell id="EVtTpWGIUV5swt_c3had-64" value="" style="endArrow=classic;html=1;rounded=0;" edge="1" parent="1">
          <mxGeometry width="50" height="50" relative="1" as="geometry">
            <mxPoint x="535.7" y="560" as="sourcePoint" />
            <mxPoint x="570" y="690" as="targetPoint" />
          </mxGeometry>
        </mxCell>
        <mxCell id="EVtTpWGIUV5swt_c3had-66" value="" style="endArrow=classic;html=1;rounded=0;entryX=0.625;entryY=0.2;entryDx=0;entryDy=0;entryPerimeter=0;" edge="1" parent="1" target="EVtTpWGIUV5swt_c3had-55">
          <mxGeometry width="50" height="50" relative="1" as="geometry">
            <mxPoint x="600" y="560" as="sourcePoint" />
            <mxPoint x="650" y="510" as="targetPoint" />
            <Array as="points">
              <mxPoint x="610" y="560" />
            </Array>
          </mxGeometry>
        </mxCell>
        <mxCell id="EVtTpWGIUV5swt_c3had-68" value="" style="endArrow=classic;html=1;rounded=0;exitX=0.563;exitY=0.667;exitDx=0;exitDy=0;exitPerimeter=0;entryX=0.804;entryY=0.183;entryDx=0;entryDy=0;entryPerimeter=0;" edge="1" parent="1" source="EVtTpWGIUV5swt_c3had-52" target="EVtTpWGIUV5swt_c3had-55">
          <mxGeometry width="50" height="50" relative="1" as="geometry">
            <mxPoint x="610" y="580" as="sourcePoint" />
            <mxPoint x="650" y="700" as="targetPoint" />
          </mxGeometry>
        </mxCell>
        <mxCell id="EVtTpWGIUV5swt_c3had-69" value="" style="endArrow=classic;html=1;rounded=0;exitX=0.654;exitY=0.667;exitDx=0;exitDy=0;exitPerimeter=0;entryX=0.875;entryY=0.5;entryDx=0;entryDy=0;entryPerimeter=0;" edge="1" parent="1" source="EVtTpWGIUV5swt_c3had-52" target="EVtTpWGIUV5swt_c3had-55">
          <mxGeometry width="50" height="50" relative="1" as="geometry">
            <mxPoint x="610" y="580" as="sourcePoint" />
            <mxPoint x="680" y="720" as="targetPoint" />
          </mxGeometry>
        </mxCell>
        <mxCell id="EVtTpWGIUV5swt_c3had-72" value="" style="endArrow=classic;html=1;rounded=0;entryX=0.993;entryY=0.625;entryDx=0;entryDy=0;entryPerimeter=0;" edge="1" parent="1">
          <mxGeometry width="50" height="50" relative="1" as="geometry">
            <mxPoint x="810" y="560" as="sourcePoint" />
            <mxPoint x="660" y="739.38" as="targetPoint" />
          </mxGeometry>
        </mxCell>
        <mxCell id="EVtTpWGIUV5swt_c3had-73" value="" style="endArrow=classic;html=1;rounded=0;entryX=0.927;entryY=0.582;entryDx=0;entryDy=0;entryPerimeter=0;" edge="1" parent="1" target="EVtTpWGIUV5swt_c3had-55">
          <mxGeometry width="50" height="50" relative="1" as="geometry">
            <mxPoint x="881.5" y="560" as="sourcePoint" />
            <mxPoint x="670" y="740" as="targetPoint" />
          </mxGeometry>
        </mxCell>
        <mxCell id="EVtTpWGIUV5swt_c3had-74" value="" style="endArrow=classic;html=1;rounded=0;entryX=0.909;entryY=0.818;entryDx=0;entryDy=0;entryPerimeter=0;" edge="1" parent="1" target="EVtTpWGIUV5swt_c3had-55">
          <mxGeometry width="50" height="50" relative="1" as="geometry">
            <mxPoint x="950" y="560" as="sourcePoint" />
            <mxPoint x="1000" y="510" as="targetPoint" />
          </mxGeometry>
        </mxCell>
        <mxCell id="EVtTpWGIUV5swt_c3had-75" value="INFECTED USERS" style="text;html=1;align=center;verticalAlign=middle;whiteSpace=wrap;rounded=0;" vertex="1" parent="1">
          <mxGeometry x="1010" y="480" width="160" height="30" as="geometry" />
        </mxCell>
        <mxCell id="EVtTpWGIUV5swt_c3had-79" value="Targeted Servers" style="whiteSpace=wrap;html=1;aspect=fixed;" vertex="1" parent="1">
          <mxGeometry x="513.5" y="850" width="130" height="130" as="geometry" />
        </mxCell>
        <mxCell id="EVtTpWGIUV5swt_c3had-80" value="" style="endArrow=classic;html=1;rounded=0;exitX=0.482;exitY=0.964;exitDx=0;exitDy=0;exitPerimeter=0;entryX=0.409;entryY=-0.015;entryDx=0;entryDy=0;entryPerimeter=0;" edge="1" parent="1" source="EVtTpWGIUV5swt_c3had-55" target="EVtTpWGIUV5swt_c3had-79">
          <mxGeometry width="50" height="50" relative="1" as="geometry">
            <mxPoint x="650" y="910" as="sourcePoint" />
            <mxPoint x="700" y="860" as="targetPoint" />
          </mxGeometry>
        </mxCell>
      </root>
    </mxGraphModel>
  </diagram>
</mxfile>
